<?xml version="1.0" encoding="UTF-8"?>
<!-- Generator: Adobe Illustrator 16.0.0, SVG Export Plug-In . SVG Version: 6.00 Build 0)  -->
<!DOCTYPE svg PUBLIC "-//W3C//DTD SVG 1.1//EN" "http://www.w3.org/Graphics/SVG/1.1/DTD/svg11.dtd">
<svg version="1.1" id="Ebene_1" xmlns="http://www.w3.org/2000/svg" xmlns:xlink="http://www.w3.org/1999/xlink" x="0px" y="0px" width="242px" height="40px" viewBox="0 0 242 40" enable-background="new 0 0 242 40" xml:space="preserve">
<line fill="#E1141C" x1="-0.167" y1="40.064" x2="-0.167" y2="0.064"/>
<g id="Ebene_1_1_">
	<g>
		<polygon fill="#FFFFFF" points="3.625,0.078 43.604,0.078 43.604,40.051 3.625,40.051   "/>
		<polygon fill="#E1141C" points="102.091,0.09 242,0.09 242,40.063 232,40.063 227.01,9.973 222.012,40.063 217.016,9.973     212.02,40.063 102.091,40.063   "/>
		<polygon fill="#E1141C" points="0,40.051 0,0.078 2.002,0.078 2.002,40.051   "/>
		<path fill="#010202" d="M41.509,20.827c0.517-0.711-0.273-1.234-0.77-0.199l-0.48,1.032c-0.083,0.162-0.117,0.133-0.199,0.088    c-0.06-0.031-0.465-0.229-0.56-0.182c-0.02,0.115,0.286,0.402,0.36,0.477l-6.587,9.42l0.436,0.303l6.585-9.418    c0.084,0.041,0.479,0.23,0.566,0.182c0.015-0.117-0.293-0.412-0.356-0.465c-0.069-0.064-0.11-0.088,0.015-0.221l0.806-0.807    C41.395,20.965,41.457,20.898,41.509,20.827L41.509,20.827z M40.081,21.496l0.45-0.966c0.684-1.432,2.068-0.463,0.958,0.667    l-0.756,0.756c0.143,0.135,0.476,0.48,0.318,0.703c-0.142,0.201-0.511,0.061-0.678-0.016l-6.607,9.438l-0.815-0.563l6.607-9.443    c-0.129-0.135-0.391-0.432-0.248-0.635C39.465,21.215,39.905,21.41,40.081,21.496L40.081,21.496z M18.84,13.856    c-3.398,1.425-6.929-2.161-5.186-5.577c1.625-3.19,6.112-2.773,7.369,0.312c0.058,0.144-0.154,0.229-0.212,0.085    c-1.184-2.907-5.416-3.299-6.953-0.293c-1.646,3.229,1.696,6.6,4.895,5.259C18.892,13.586,18.982,13.798,18.84,13.856    L18.84,13.856z M14.994,29.975c0.427-0.301,0.92,0.402,0.49,0.703l-1.909,1.336l-1.271,0.893    c-0.428,0.299-0.922-0.404-0.493-0.705l1.002-0.73L5.349,20.843c-0.095-0.137,0.11-0.899,0.138-1.018c0,0,0.299,0.041,0.5,0.078    c0.093,0.016,0.427,0.063,0.498,0.147l7.464,10.631L14.994,29.975L14.994,29.975z M15.123,30.162l-1.232,0.836L6.309,20.206    c-0.203-0.063-0.437-0.09-0.647-0.125c-0.044,0.199-0.116,0.438-0.117,0.638L13.13,31.52l-1.189,0.869    c-0.181,0.127,0.048,0.453,0.229,0.326l1.268-0.893l1.912-1.336C15.534,30.363,15.304,30.035,15.123,30.162L15.123,30.162z     M26.686,4.802L24.691,6.18l-1.06-1.477L22.573,6.18l-1.995-1.378l0.749,2.105h4.61L26.686,4.802L26.686,4.802z M24.561,5.606    l0.146,0.206l1.311-1.75C25.944,4,25.869,3.947,25.784,3.897L24.561,5.606L24.561,5.606z M23.484,4.519l0.146-0.204l0.131,0.181    V3.634h-0.277V4.519L23.484,4.519z M20.663,4.584c0.084-0.16,0.188-0.316,0.325-0.459l-0.071-0.094    c0.193-0.176,0.381-0.31,0.615-0.428l1.304,1.82l0.417-0.583V3.292c0,0,0.006-0.122,0.163-0.137    c0.085-0.007,0.183-0.235,0.105-0.313c-0.064-0.063-0.285,0.021-0.311,0.104c-0.031,0.104-0.133,0.1-0.133,0.1h-0.355V2.415    l0.354,0.001c0,0,0.103-0.007,0.133,0.1c0.025,0.082,0.246,0.167,0.311,0.103c0.08-0.08-0.022-0.291-0.104-0.314    c-0.114-0.034-0.103-0.137-0.103-0.137V1.832h0.607v0.334c0,0,0.013,0.102-0.103,0.137c-0.08,0.023-0.182,0.235-0.103,0.315    c0.063,0.063,0.285-0.021,0.31-0.103c0.033-0.105,0.134-0.1,0.134-0.1l0.355-0.001v0.63l-0.355-0.001c0,0-0.102,0.004-0.134-0.1    c-0.023-0.081-0.246-0.167-0.31-0.104c-0.079,0.08,0.02,0.308,0.104,0.314c0.164,0.014,0.179,0.137,0.179,0.137v1.533l0.419,0.584    l1.294-1.806c0.235,0.118,0.421,0.251,0.616,0.428l-0.07,0.093c0.142,0.146,0.247,0.308,0.33,0.471l0.543-0.377l-1.035,2.915    h-4.93l-1.035-2.915L20.663,4.584L20.663,4.584z M21.227,4.063l1.318,1.763l0.147-0.207L21.461,3.9    C21.376,3.947,21.302,4,21.227,4.063L21.227,4.063z M28.407,13.856c-0.144-0.06-0.054-0.27,0.088-0.211    c3.197,1.339,6.539-2.03,4.892-5.26c-1.532-3.006-5.764-2.613-6.948,0.293c-0.06,0.145-0.272,0.058-0.214-0.085    c1.255-3.085,5.743-3.5,7.367-0.312C35.335,11.698,31.803,15.285,28.407,13.856L28.407,13.856z M13.783,33.346    c0.008-0.008,0.018-0.016,0.028-0.021l1.269-0.889l0.354-0.572l-0.669,0.143l-1.25,0.873c-0.103,0.072-0.135,0.225-0.04,0.357    C13.558,33.355,13.693,33.385,13.783,33.346L13.783,33.346z M14.077,34.207c-0.134-0.02-0.266-0.098-0.352-0.221    c-0.085-0.119-0.114-0.27-0.086-0.404c-0.137-0.02-0.268-0.098-0.352-0.219c-0.149-0.211-0.13-0.512,0.083-0.664l1.3-0.91    l1.23-0.26l-0.506,0.822l0.944-0.199l-0.506,0.824l0.942-0.201l-0.659,1.074l-1.284,0.896l-0.016,0.014    c-0.214,0.146-0.505,0.063-0.652-0.146C14.079,34.492,14.049,34.344,14.077,34.207L14.077,34.207z M14.398,34.125l-0.017,0.014    c-0.01,0.01-0.019,0.014-0.029,0.021c-0.068,0.072-0.086,0.205-0.001,0.326c0.093,0.133,0.244,0.156,0.334,0.096l0.02-0.014    l1.247-0.873l0.356-0.584L15.65,33.25L14.398,34.125L14.398,34.125z M15.517,33.061l0.355-0.574l-0.659,0.141l-1.253,0.877    l-0.015,0.016c-0.012,0.006-0.021,0.012-0.031,0.018c-0.068,0.072-0.085,0.207-0.001,0.328c0.085,0.119,0.216,0.148,0.309,0.111    c0.008-0.012,0.019-0.02,0.027-0.023L15.517,33.061L15.517,33.061z M16.261,34.359c0.402,0,0.729,0.326,0.729,0.73    c0,0.398-0.326,0.727-0.729,0.727c-0.401,0-0.728-0.324-0.728-0.727C15.534,34.686,15.86,34.359,16.261,34.359L16.261,34.359z     M16.261,34.57c-0.287,0-0.516,0.23-0.516,0.518c0,0.283,0.229,0.516,0.516,0.516c0.284,0,0.517-0.23,0.517-0.516    C16.778,34.801,16.546,34.57,16.261,34.57L16.261,34.57z M33.465,33.346c0.091,0.039,0.224,0.01,0.307-0.109    c0.093-0.135,0.063-0.285-0.026-0.35l-1.265-0.885l-0.67-0.141l0.355,0.572l1.257,0.881C33.446,33.33,33.458,33.338,33.465,33.346    L33.465,33.346z M33.17,34.207c0.028,0.137-0.003,0.285-0.086,0.404c-0.148,0.211-0.441,0.299-0.654,0.146l-0.016-0.012    L31.13,33.85l-0.66-1.074l0.944,0.199l-0.505-0.822l0.942,0.199l-0.506-0.824l1.231,0.262l1.287,0.9    c0.228,0.16,0.244,0.461,0.097,0.672c-0.085,0.123-0.214,0.203-0.353,0.221c0.028,0.137-0.002,0.283-0.088,0.404    C33.438,34.111,33.305,34.189,33.17,34.207L33.17,34.207z M32.85,34.125l-1.253-0.877l-0.658-0.139l0.358,0.582l1.247,0.873    l0.019,0.016c0.089,0.063,0.24,0.037,0.333-0.096c0.085-0.123,0.069-0.258-0.001-0.328c-0.01-0.006-0.019-0.012-0.029-0.02    L32.85,34.125L32.85,34.125z M31.731,33.061l1.257,0.881c0.022,0.016,0.031,0.021,0.04,0.029c0.091,0.037,0.225,0.01,0.308-0.111    c0.084-0.119,0.065-0.256-0.001-0.324c-0.011-0.008-0.021-0.014-0.03-0.021L33.29,33.5l-1.252-0.877l-0.659-0.143L31.731,33.061    L31.731,33.061z M30.986,34.359c0.402,0,0.729,0.326,0.729,0.73c0,0.398-0.325,0.727-0.729,0.727    c-0.401,0-0.727-0.324-0.727-0.727C30.258,34.686,30.584,34.359,30.986,34.359L30.986,34.359z M30.986,34.57    c-0.284,0-0.517,0.23-0.517,0.518c0,0.283,0.231,0.516,0.517,0.516s0.519-0.23,0.519-0.516    C31.503,34.801,31.27,34.57,30.986,34.57L30.986,34.57z M19.262,16.327v3.538h8.74v-3.538H19.262L19.262,16.327z M19.27,22.695    c0,2.191,1.931,3.822,4.35,3.822c2.418,0,4.383-1.643,4.383-3.83v-2.501h-8.735L19.27,22.695L19.27,22.695z M32.608,9.48    c0.648,0.351,0.657,0.917,0.478,1.563c-0.898-0.462-1.795-0.528-2.736-0.217c-0.025,0.008-0.06,0.021-0.092,0.032    c0.528,0.219,1.186,0.395,1.692,0.297l0.343-0.063c-0.163,0.175-0.314,0.351-0.517,0.481c-0.499,0.329-0.689,0.194-1.197,0.133    c-0.331-0.04-0.594-0.018-0.893,0.042c-0.044,0.059-0.089,0.099-0.141,0.11c-3.355,0.763-2.653,3.627-0.804,4.328    c1.172,0.444,3.098-0.058,3.052-0.459c-0.018-0.133-0.026-0.312-0.039-0.44c0.144-0.149,0.246-0.299,0.276-0.299    c0.053,0.002,0.146,0.4,0.815,0.7c4.271,1.91,7.991,1.679,8.018,1.685c0.283,0.049-1.194,1.783-1.987,1.98    c-0.613,0.149-2.329,0.145-6.768-1.006c-0.232-0.06-0.509-0.266-0.469-0.417c-0.166,0.049-0.362,0.063-0.362,0.06    c0.146,0.756,0.385,1.12,2.281,1.928c1.748,0.744,3.991,1.399,4.336,1.522c0.333,0.111-0.387,1.178-1.733,1.318    c-0.811,0.082-2.783-0.396-5.002-1.123c-0.243-0.078-0.327-0.32-0.386-0.477c-0.135,0.045-0.296,0.072-0.299,0.07    c0.141,0.494,0.197,1.029,1.394,1.883c1.051,0.746,2.901,1.477,3.674,1.729c0.443,0.148-0.747,1.135-1.588,1.057    c-1.241-0.111-3.035-0.832-4.532-1.65c-0.167-0.092-0.258-0.418-0.262-0.42c-0.126,0.043-0.239,0.049-0.235,0.049    c0,0.002-0.065,0.625,0.172,0.98c0.65,0.977,1.578,1.721,4.371,2.867c0.493,0.205-0.558,0.912-1.375,0.896    c-1.791-0.033-3.904-1.119-4.955-1.947c-0.241-0.191-0.262-0.574-0.262-0.578c-0.007,0-0.21,0.086-0.397,0.219    c0,0,0.063,0.621,0.504,1.205c0.406,0.543,0.834,0.994,1.354,1.482c0.785,0.734,2.788,2.473,2.788,2.471    c-0.095,0.123-0.556,0.783-0.626,0.883c-1.154-0.938-2.904-1.854-3.551-2.201c-0.706-0.377-2.082-1.117-1.915-0.676    c0.499,1.332,1.275,2.898,1.476,3.299c-0.511-0.223-1.362-0.365-1.629-0.396c-0.032,0.049-0.107,0.207-0.144,0.229    c0.012,0.004,0.218,0.133,0.218,0.129c-0.658,1.584-1.329,2.641-1.329,2.641c-0.006,0-0.678-1.057-1.337-2.641    c0,0.004,0.206-0.125,0.22-0.129c-0.036-0.021-0.112-0.182-0.145-0.229c-0.266,0.029-1.12,0.174-1.63,0.396    c0.201-0.4,0.977-1.967,1.478-3.299c0.166-0.441-1.211,0.299-1.915,0.676c-0.648,0.348-2.397,1.264-3.55,2.201    c-0.073-0.1-0.534-0.76-0.628-0.883c0,0.002,2.001-1.734,2.787-2.471c0.522-0.488,0.947-0.939,1.355-1.482    c0.439-0.584,0.503-1.205,0.503-1.205c-0.188-0.135-0.392-0.219-0.399-0.219c0,0.004-0.021,0.387-0.263,0.578    c-1.052,0.828-3.166,1.912-4.955,1.947c-0.815,0.018-1.864-0.689-1.373-0.896c2.793-1.148,3.721-1.893,4.371-2.867    c0.238-0.355,0.171-0.98,0.171-0.98c0.004,0-0.107-0.006-0.234-0.049c-0.002,0.002-0.094,0.326-0.261,0.42    c-1.496,0.818-3.289,1.539-4.531,1.65c-0.841,0.078-2.032-0.908-1.588-1.057c0.773-0.252,2.622-0.98,3.674-1.729    c1.195-0.854,1.254-1.389,1.391-1.883c-0.003,0.002-0.165-0.025-0.299-0.07c-0.058,0.154-0.142,0.396-0.384,0.477    c-2.22,0.729-4.196,1.205-5.003,1.123c-1.345-0.143-2.064-1.207-1.731-1.318c0.347-0.121,2.587-0.776,4.334-1.522    c1.9-0.807,2.136-1.17,2.282-1.928c0,0.001-0.195-0.012-0.361-0.06c0.042,0.151-0.235,0.355-0.469,0.417    c-4.436,1.149-6.154,1.155-6.768,1.006c-0.793-0.197-2.27-1.933-1.986-1.98c0.028-0.004,3.746,0.226,8.018-1.685    c0.667-0.298,0.764-0.697,0.813-0.7c0.031,0,0.135,0.149,0.277,0.299c-0.013,0.132-0.022,0.31-0.037,0.44    c-0.048,0.401,1.879,0.904,3.05,0.459c1.848-0.702,2.551-3.567-0.806-4.328c-0.051-0.012-0.096-0.051-0.14-0.109    c-0.3-0.061-0.563-0.083-0.896-0.042c-0.504,0.062-0.699,0.195-1.197-0.133c-0.201-0.131-0.353-0.308-0.517-0.481l0.345,0.063    c0.507,0.096,1.165-0.08,1.692-0.297c-0.035-0.014-0.066-0.025-0.095-0.032c-0.94-0.313-1.836-0.246-2.733,0.217    c-0.184-0.646-0.17-1.211,0.477-1.562c0.375-0.203,0.83-0.26,1.25-0.289c0.242-0.161,0.453-0.306,0.557-0.33    c0.454-0.1,0.899-0.146,1.337-0.159c0.863-0.026,1.558,0.019,2.087,0.31c0.235,0.128,0.509,0.177,0.506,0.214    c-0.001,0.05-0.239,0.042-0.346,0.072c-0.2,0.054-0.349,0.185-0.312,0.211c0.46,0.369,2.803,0.53,3.9,4.324    c1.097-3.793,3.441-3.956,3.904-4.324c0.036-0.026-0.113-0.159-0.313-0.211c-0.104-0.029-0.344-0.022-0.346-0.072    c-0.001-0.04,0.271-0.087,0.506-0.214c0.531-0.291,1.227-0.336,2.087-0.31c0.439,0.012,0.885,0.06,1.336,0.159    c0.105,0.023,0.316,0.169,0.56,0.332C31.778,9.224,32.233,9.28,32.608,9.48L32.608,9.48z M32.499,9.685    c-0.356-0.191-0.842-0.24-1.193-0.265c-0.479,0.294-0.795,0.62-1.043,1.191c0.86-0.286,1.833-0.283,2.67,0.101    C33.046,10.151,32.819,9.856,32.499,9.685L32.499,9.685z M31.602,11.413c-0.494-0.012-1.053-0.175-1.511-0.37    c-0.057,0.158-0.117,0.309-0.167,0.428c0.247-0.029,0.483-0.017,0.679,0.008C31.028,11.531,31.198,11.658,31.602,11.413    L31.602,11.413z M15.642,11.413c0.406,0.245,0.576,0.118,0.999,0.066c0.197-0.024,0.433-0.037,0.679-0.008    c-0.052-0.12-0.109-0.27-0.166-0.428C16.696,11.238,16.137,11.401,15.642,11.413L15.642,11.413z M14.749,9.685    c-0.323,0.175-0.549,0.47-0.438,1.028c0.837-0.384,1.811-0.387,2.672-0.1c-0.249-0.57-0.563-0.897-1.044-1.191    C15.59,9.442,15.106,9.492,14.749,9.685L14.749,9.685z M17.574,9.085c-0.261,0-0.471,0.21-0.471,0.469    c0,0.261,0.209,0.47,0.471,0.47c0.262,0,0.473-0.21,0.473-0.47C18.047,9.294,17.836,9.085,17.574,9.085L17.574,9.085z     M29.674,9.085c-0.261,0-0.471,0.21-0.471,0.469c0,0.261,0.209,0.47,0.471,0.47c0.259,0,0.47-0.21,0.47-0.47    C30.144,9.294,29.932,9.085,29.674,9.085L29.674,9.085z M25.279,16.856l0.553,0.984l0.46-0.984l0.464,0.984l0.557-0.982v2.434    h-2.031v-2.436H25.279z M25.465,17.526v1.579h1.662v-1.581L26.755,18.2l-0.462-0.983l-0.46,0.983L25.465,17.526L25.465,17.526z     M22.617,16.856l0.553,0.984l0.459-0.984l0.465,0.984l0.555-0.982v2.434h-2.031L22.617,16.856L22.617,16.856z M22.803,17.526    v1.579h1.661v-1.581L24.092,18.2l-0.462-0.983L23.171,18.2L22.803,17.526L22.803,17.526z M20.135,17.526v1.579h1.663v-1.581    L21.426,18.2l-0.462-0.983L20.505,18.2L20.135,17.526L20.135,17.526z M19.951,16.856l0.555,0.984l0.459-0.984l0.462,0.984    l0.559-0.982v2.434h-2.033L19.951,16.856L19.951,16.856z M24.78,25.338c-0.022-0.299,0.365-0.342,0.355-0.689    c-0.018-0.801,0.451,0.037,0.548,0.455c0.075,0.332-0.13,0.57-0.403,0.588C25.023,25.707,24.8,25.609,24.78,25.338L24.78,25.338z     M21.562,25.338c-0.021-0.299,0.364-0.342,0.355-0.689c-0.02-0.801,0.45,0.037,0.547,0.455c0.077,0.332-0.128,0.57-0.401,0.588    C21.805,25.707,21.581,25.609,21.562,25.338L21.562,25.338z M26.39,21.656c-0.022-0.299,0.365-0.342,0.355-0.689    c-0.018-0.796,0.452,0.037,0.546,0.457c0.075,0.332-0.13,0.57-0.402,0.588C26.633,22.025,26.411,21.928,26.39,21.656L26.39,21.656    z M24.78,21.656c-0.022-0.299,0.365-0.342,0.355-0.689c-0.018-0.796,0.451,0.037,0.548,0.457c0.075,0.332-0.13,0.57-0.403,0.588    C25.023,22.025,24.8,21.928,24.78,21.656L24.78,21.656z M23.17,21.656c-0.021-0.299,0.363-0.342,0.355-0.689    c-0.019-0.796,0.453,0.037,0.546,0.457c0.079,0.332-0.129,0.57-0.403,0.588C23.414,22.025,23.189,21.928,23.17,21.656    L23.17,21.656z M21.562,21.656c-0.021-0.299,0.364-0.342,0.355-0.689c-0.02-0.796,0.45,0.037,0.547,0.457    c0.077,0.332-0.128,0.57-0.401,0.588C21.805,22.025,21.581,21.928,21.562,21.656L21.562,21.656z M19.951,21.656    c-0.021-0.299,0.363-0.342,0.354-0.689c-0.019-0.796,0.451,0.037,0.548,0.457c0.076,0.332-0.13,0.57-0.403,0.588    C20.193,22.025,19.97,21.928,19.951,21.656L19.951,21.656z M25.586,23.566c-0.021-0.299,0.362-0.34,0.354-0.691    c-0.019-0.797,0.453,0.037,0.546,0.455c0.078,0.334-0.129,0.572-0.402,0.588C25.828,23.938,25.606,23.838,25.586,23.566    L25.586,23.566z M23.979,23.566c-0.023-0.299,0.362-0.34,0.354-0.691c-0.02-0.797,0.449,0.037,0.546,0.455    c0.076,0.334-0.129,0.572-0.403,0.588C24.218,23.938,23.996,23.838,23.979,23.566L23.979,23.566z M22.366,23.566    c-0.021-0.299,0.363-0.34,0.355-0.691c-0.019-0.797,0.449,0.037,0.547,0.455c0.078,0.334-0.129,0.572-0.401,0.588    C22.609,23.938,22.387,23.838,22.366,23.566L22.366,23.566z M20.757,23.566c-0.022-0.299,0.363-0.34,0.355-0.691    c-0.018-0.797,0.45,0.037,0.546,0.455c0.078,0.334-0.128,0.572-0.401,0.588C20.999,23.938,20.775,23.838,20.757,23.566    L20.757,23.566z"/>
	</g>
</g>
<polygon fill="#E1141C" points="44.091,0.09 184,0.09 184,40.063 174,40.063 169.01,9.973 164.012,40.063 159.016,9.973   154.02,40.063 44.091,40.063 "/>
<polygon fill="#E1141C" points="2.002,40.051 2.002,0.078 4.004,0.078 4.004,40.051 "/>
<g>
	<path fill="#FFFFFF" d="M56.911,24.397c0-1.66-0.709-2.765-2.348-3.632l-1.991-1.064c-1.324-0.71-1.756-1.185-1.756-1.973   c0-1.243,0.789-1.836,2.466-1.836c0.985,0,2.053,0.179,3.156,0.495v-1.499c-1.617-0.493-2.526-0.671-3.473-0.671   c-2.84,0-4.498,1.401-4.498,3.787c0,1.541,0.689,2.585,2.308,3.494l2.426,1.341c0.928,0.512,1.301,1.064,1.301,1.873   c0,1.4-0.906,2.053-2.801,2.053c-0.968,0-1.933-0.141-3.411-0.476v1.522c1.795,0.473,2.979,0.688,3.886,0.688   C55.116,28.501,56.911,26.94,56.911,24.397L56.911,24.397z"/>
	<path fill="#FFFFFF" d="M64.529,27.968v-1.343c-0.512,0.103-1.064,0.159-1.496,0.159c-1.205,0-1.601-0.396-1.601-1.6V19.62h3.097   v-1.401h-3.097v-3.176l-2.348,0.87v2.308h-1.361v1.401h1.361v5.979c0,2.071,0.789,2.861,2.821,2.861   C62.478,28.462,62.97,28.362,64.529,27.968L64.529,27.968z"/>
	<path fill="#FFFFFF" d="M73.907,28.323v-6.748c0-1.521-0.199-2.209-0.771-2.762c-0.554-0.493-1.5-0.79-2.548-0.79   c-0.905,0-2.051,0.197-3.944,0.672v1.282c0.987-0.178,2.248-0.314,3.138-0.314c1.323,0,1.836,0.453,1.836,1.599v1.087   c-1.065,0-1.876,0.039-2.743,0.118c-2.07,0.196-3.115,1.203-3.115,3.019c0,1.796,1.204,2.979,3.057,2.979   c0.752,0,1.344-0.153,2.861-0.769v0.63L73.907,28.323L73.907,28.323z M71.618,26.687c-0.515,0.117-1.048,0.178-1.541,0.178   c-1.279,0-1.933-0.531-1.933-1.6c0-0.867,0.553-1.42,1.617-1.561c0.531-0.077,0.709-0.077,1.854-0.116L71.618,26.687L71.618,26.687   z"/>
	<path fill="#FFFFFF" d="M85.293,28.323V13.05h-2.348v5.525c-0.791-0.336-1.44-0.474-2.172-0.474c-2.762,0-4.814,2.328-4.814,5.447   c0,3.035,1.617,4.973,4.123,4.973c0.671,0,1.322-0.179,2.9-0.811v0.611L85.293,28.323L85.293,28.323z M82.945,26.586   c-0.594,0.118-1.065,0.179-1.6,0.179c-1.854,0-2.92-1.242-2.92-3.412c0-2.368,1.145-3.709,3.178-3.709   c0.453,0,0.967,0.061,1.342,0.118V26.586L82.945,26.586z"/>
	<path fill="#FFFFFF" d="M93.779,27.968v-1.343c-0.514,0.103-1.064,0.159-1.498,0.159c-1.205,0-1.602-0.396-1.602-1.6V19.62h3.098   v-1.401H90.68v-3.176l-2.348,0.87v2.308h-1.359v1.401h1.359v5.979c0,2.071,0.791,2.861,2.82,2.861   C91.729,28.462,92.221,28.362,93.779,27.968L93.779,27.968z"/>
	<path fill="#FFFFFF" d="M110.083,28.323l-5.467-7.635l5.368-6.294h-2.625l-5.267,6.649l4.935,7.281L110.083,28.323L110.083,28.323z    M101.975,28.323v-13.93h-2.447v13.931L101.975,28.323L101.975,28.323z"/>
	<path fill="#FFFFFF" d="M118.945,15.261c0-0.81-0.416-1.224-1.204-1.224c-0.828,0-1.265,0.435-1.265,1.283   c0,0.808,0.396,1.184,1.246,1.184C118.493,16.504,118.945,16.05,118.945,15.261L118.945,15.261z M115.217,15.261   c0-0.81-0.414-1.224-1.205-1.224c-0.848,0-1.263,0.435-1.263,1.283c0,0.808,0.396,1.184,1.241,1.184   C114.762,16.504,115.217,16.05,115.217,15.261L115.217,15.261z M120.782,23.114c0-3.197-1.837-5.13-4.854-5.13   c-3.137,0-4.992,2.033-4.992,5.506c0,3.137,1.856,5.071,4.855,5.071C118.907,28.56,120.782,26.524,120.782,23.114L120.782,23.114z    M118.316,23.231c0,2.547-0.869,3.927-2.446,3.927c-1.638,0-2.468-1.322-2.468-3.948c0-2.447,0.889-3.826,2.447-3.826   C117.466,19.384,118.316,20.726,118.316,23.231L118.316,23.231z"/>
	<polygon fill="#FFFFFF" points="125.266,28.323 125.266,13.05 122.917,13.05 122.917,28.323  "/>
	<path fill="#FFFFFF" d="M136.709,28.323v-6.512c0-1.458-0.178-2.189-0.689-2.819c-0.494-0.594-1.439-0.988-2.389-0.988   c-0.89,0-1.557,0.178-3.333,0.851v-0.633h-2.289v10.103h2.351v-8.346c0.789-0.159,1.379-0.235,1.935-0.235   c1.558,0,2.07,0.593,2.07,2.366v6.215L136.709,28.323L136.709,28.323z"/>
</g>
</svg>